# xmcd
#
# Track frame offsets: 
#        150
#        17285
#        34453
#        50591
#        64139
#        80472
#        95685
#        113183
#        132102
#        146125
#        162952
#        178255
#        189130
#        206473
#        218789
#        233247
#        248902
#        267869
#        281229
#        298374
#        313979
#        333257
#
# Disc length: 4592 seconds
#
# Revision: 0
# Processed by: cddbd v1.5.2PL0 Copyright (c) Steve Scherf et al.
# Submitted via: ExactAudioCopy v1.1
#
DISCID=5511ee16
DTITLE=Various Artist - MNM - Het Beste Van De Teens 2010-2017 - CD 4
DYEAR=2018
DGENRE=Top 40
TTITLE0=Luis Fonsi and Daddy Yankee - Despacito
TTITLE1=The Weeknd Feat. Daft Punk - Starboy
TTITLE2=Fifth Harmony Feat. Ty Dolla $Ign - Work From Home
TTITLE3=Netsky - Come Alive
TTITLE4=Tim Berg - Bromance
TTITLE5=Pitbull Feat. Ke$Ha - Timber
TTITLE6=Florence and The Machine - Ship To Wreck
TTITLE7=Lana Del Rey - Summertime Sadness
TTITLE8=Shawn Mendes - Treat You Better
TTITLE9=Alicia Keys - Girl On Fire
TTITLE10=DJ Snake Feat. Justin Bieber - Let Me Love You
TTITLE11=Lil Kleine and Ronnie Flex - Drank and Drugs
TTITLE12=Maroon 5 Feat. Wiz Khalifa - Payphone
TTITLE13=Niels and Wiels - Skwon Meiske
TTITLE14=Eva Simons Feat. Konshens - Policeman
TTITLE15=Alvaro Soler - Sofia
TTITLE16=Ne-Yo - Let Me Love You (Until You Learn To Love Yourself)
TTITLE17=DJ Fresh Feat. Rita Ora - Hot Right Now
TTITLE18=Jebroer - Banaan (Bigger Better Anthem)
TTITLE19=James Arthur - Impossible
TTITLE20=Maaike Ouboter - Dat Ik Je Mis
TTITLE21=Peter and Julie - Koud Hé
EXTD=
EXTT0=
EXTT1=
EXTT2=
EXTT3=
EXTT4=
EXTT5=
EXTT6=
EXTT7=
EXTT8=
EXTT9=
EXTT10=
EXTT11=
EXTT12=
EXTT13=
EXTT14=
EXTT15=
EXTT16=
EXTT17=
EXTT18=
EXTT19=
EXTT20=
EXTT21=
PLAYORDER=
